<svg xmlns="http://www.w3.org/2000/svg" width="641.2" height="551.7"><path fill="#8bd3ee" d="m 20.6,537.9 c -12,-37.2 -19,-73 -20,-104.2 0,-7.4 -1,-16.9 -1,-21.1 0,-4.3 0,-12.6 0,-18.5 1,-6 2,-18.1 3,-26.9 3,-28.7 12,-69.1 21,-92.5 1,-3 2,-7.5 3,-10 5,-14.2 16,-37.3 25,-54.4 34.7,-62 87.4,-116.2 149.5,-153.1 12.4,-7.4 40.9,-21.6 51.8,-26 14,-5.6 16.9,-6.7 23.7,-9 C 315.2,9.303 348.2,3.003 389,0.6032 423.3,-1.397 461.3,1.603 497.2,9.203 506.9,11.3 533,18.1 540.7,20.5 c 29.3,9.4 65.6,26.9 94.2,45.4 l 6.3,4.1 0,240.8 0,240.9 -307.9,0 -307.7,0 -5,-13.8 z"/><path fill="#c8e18f" d="m 27.6,551.4 c 0,-0.1 -1,-0.9 -1,-1.7 0,-0.8 -2,-6.2 -4,-12 -9,-27.1 -16,-59.1 -18,-81 0,-3.5 -1,-6.8 -1,-7.2 -1,-1 -2,-37.3 -2,-54.4 0,-21.4 2,-40.7 7,-63.9 4,-19.7 10,-44 15,-56.5 1,-3 2,-7.5 3,-10 5,-13.6 17,-40.1 27,-57 7,-13.3 7,-13.2 15,-17.6 2,-1.3 3,-1.4 5,-0.5 1,0.6 3,1.1 4,1.1 3,0 3,0.2 2,3.7 0,2 -2,6.1 -4,9 -8,10.7 -9,13.2 -7,16.8 0,1.7 1,4.9 1,7.1 0,2.1 0,4.8 1,5.8 1,1.1 2,2.8 2,3.8 0,3.3 3,1.9 5,-2.5 3,-5.8 5,-7.7 7,-7.7 2.9,0 4.1,1.9 5.1,7.6 0.5,3.6 1.4,4.7 5.9,7.8 2.9,2 6.4,3.6 7.7,3.6 3.1,0 4.9,1.7 4.9,4.7 0,1.3 0.5,2.3 1,2.3 0.5,0 1,-1.4 1,-3.1 0,-2.6 0.3,-3 1.7,-2.4 6,2.6 7,2.1 15.8,-6.9 4.7,-4.8 8.5,-9.3 8.5,-10 0,-0.7 1.3,-3.3 2.9,-5.7 2.2,-3.3 2.7,-4.7 2,-6.1 -1.2,-2.2 -2.7,-2.3 -5,-0.2 -2.6,2.4 -6.5,1.1 -7.7,-2.6 -1.2,-3.2 -2.9,-3.9 -3.8,-1.6 -0.9,2.4 -3.3,2.6 -5.2,0.5 -1.2,-1.2 -2.5,-1.7 -3.5,-1.3 -1.9,0.7 -2.2,-0.7 -0.8,-3.4 0.5,-0.9 1.6,-3.7 2.4,-6.2 2.9,-8.9 4.9,-13.5 6.3,-15.1 0.8,-0.8 1.4,-2.8 1.4,-4.3 0,-2.3 -0.3,-2.7 -1.7,-2.1 -1,0.4 -3,1 -4.5,1.2 -2.2,0.4 -2.8,1.2 -3.3,4.4 -0.4,2.1 -0.4,4.3 0,4.9 0.8,1.3 -3.2,6 -5.1,6 -0.7,0 -2.6,1.2 -4.3,2.6 -1.7,1.4 -3.5,2.3 -4,1.9 -0.5,-0.3 -0.8,-3.1 -0.6,-6.2 0.2,-4.5 0.8,-6.1 2.4,-7.1 1.2,-0.8 2.1,-2.5 2.1,-3.8 0,-1.2 2.1,-5.3 4.7,-9.1 4.1,-6 4.8,-7.8 5.9,-15.3 0.7,-4.7 1.6,-9.6 2,-10.9 0.5,-1.7 0.3,-2.2 -0.5,-2 -2.1,0.7 -7.3,13.9 -8.3,21.3 -1.1,7.6 -2.1,9.6 -4.7,9.6 -1,0 -2.1,1.1 -2.7,2.4 -1.1,2.8 -13.7,13.6 -15.9,13.6 -2.1,0 -2.1,-5.3 -0.2,-6.9 0.8,-0.6 3.1,-1.4 5.2,-1.9 3.6,-0.7 4.1,-1.2 6.2,-6.7 1.3,-3.3 3,-8.6 3.7,-11.7 0.8,-3.1 2.6,-8.2 4,-11.4 1.5,-3.1 2.5,-5.8 2.3,-6 -0.1,-0.2 -2.1,0.3 -4.2,1.1 -4.3,1.4 -19.1,14.9 -24.1,22 -3,4.5 -4,5.5 -6,5.5 -2,0 -1,-2.6 5,-11.5 10.5,-13.9 17.7,-22.5 19.1,-22.5 1.3,0 17.5,-17.1 22.8,-24.1 1.5,-2 5.9,-5.6 9.7,-8 4.6,-2.9 7,-5 7,-6.3 0,-2.1 12.4,-14.7 16.7,-16.9 1.5,-0.8 5,-3.6 7.7,-6.1 2.8,-2.5 5.5,-4.6 6.2,-4.6 1.4,0 12.7,-7.4 14.4,-9.5 0.7,-0.8 1.9,-1.5 2.7,-1.5 2.3,0 -0.2,2.7 -4.3,4.8 -4.1,2.1 -22.1,17.8 -23.6,20.5 -0.9,1.8 -0.8,1.9 1.3,1.4 1.3,-0.4 3.1,-0.7 4,-0.7 1,0 4.8,-2.4 8.5,-5.3 11.1,-8.5 15.7,-11.4 19.9,-12.6 2.2,-0.6 5,-1.8 6.3,-2.7 2.1,-1.5 2.2,-1.7 0.8,-3.3 -2,-2.1 -1.7,-2.4 9.9,-9.8 10.6,-6.9 21.1,-11.7 32,-14.8 5,-1.3 11,-3.4 13.5,-4.4 2.5,-1.1 10.8,-4 18.5,-6.5 7.7,-2.4 15.8,-5.2 18,-6.1 4.8,-2.1 22.9,-4.8 26.8,-4 1.6,0.2 3.8,0 4.9,-0.6 1.3,-0.7 4.1,-0.8 7.5,-0.4 6.3,0.8 7.9,2.8 4.3,5.7 -2.4,1.9 -2.5,3 -1.7,12 0.2,2.6 0.1,5.2 -0.3,5.7 -1,1.7 -7.2,3.9 -13.1,4.6 -5.1,0.6 -5.8,0.5 -8.8,-2.1 -2.3,-1.9 -3.7,-2.5 -4.6,-1.8 -0.7,0.5 -2.5,1.8 -4.1,2.8 -3.6,2.5 -9.4,7.8 -9.4,8.7 0,0.4 0.7,0.9 1.5,1.3 0.9,0.3 1.9,-0.5 2.7,-2.2 1.7,-3.4 5.3,-4.1 6.8,-1.3 1.3,2.6 2.4,2.6 5.8,0.2 3.4,-2.5 13.4,-4.5 17.9,-3.6 2.8,0.5 4,0.1 6.8,-2.2 5,-4.2 10.4,-7.3 12.6,-7.3 2.5,0 3.6,2.7 2,5.2 -0.7,1.1 -1.1,2.2 -0.8,2.4 0.2,0.2 2.8,0 5.7,-0.6 8.4,-1.6 17.6,-1.3 19.5,0.7 1,1 4.2,1.8 8.3,2.2 3.7,0.4 7.3,1 8,1.5 1.8,1.1 4.2,-1.1 4.2,-3.8 0,-1.2 0.5,-2.7 1.2,-3.4 1.4,-1.4 4.8,-1.6 4.8,-0.3 0,0.6 2.4,3.4 5.3,6.3 2.9,2.9 6,6.4 6.8,7.7 2,3.1 3.9,2 3.9,-2.3 0,-2.4 0.9,-4.1 3.8,-6.9 2.1,-2 4.5,-3.7 5.4,-3.7 0.8,0 4,-1.3 7.1,-3 3.1,-1.6 6.5,-3 7.6,-3 1.1,0 2.3,-0.4 2.6,-1 0.3,-0.5 1.3,-1 2.2,-1 1.2,0 1.4,1 1.1,4.5 -0.3,3.7 0,4.5 1.4,4.5 0.9,0 2,-0.4 2.3,-1 1.1,-1.8 3.5,-1.1 3.5,1 0,2.3 0.1,2.4 3.4,0.9 2,-1 3,-0.8 5.9,1 l 3.5,2.1 1,-3 c 1.5,-4 3.2,-4.5 11,-3.1 6.2,1.2 6.7,1.1 8.2,-0.8 2.3,-3.1 7.2,-4.1 19.8,-4.3 10,-0.1 11.6,-0.4 14.3,-2.4 3.5,-2.6 5.2,-2.2 9,1.7 1.4,1.5 4.5,3.3 7,3.9 5,1.3 7.4,3.2 9.5,7.3 1.1,2 1.2,3.2 0.4,4.7 -0.9,1.6 -0.8,2.2 0.4,2.6 0.8,0.3 1.8,1.4 2.1,2.5 0.8,2.5 2.9,3.6 9,4.4 4.8,0.8 4.9,0.7 3.4,-1.1 -0.8,-1 -4,-6.2 -7.1,-11.4 -4.8,-8.1 -15.6,-23.9 -22.8,-33.2 -1.1,-1.4 -1.7,-2.9 -1.2,-3.2 0.5,-0.3 6,1.2 12.3,3.3 29.8,10 56,22.2 83.2,38.6 l 17.7,10.8 0,239.8 0,239.9 -307,0 c -168.9,0 -306.6,-0.1 -307.6,-0.3 z m 292.7,-14.1 c 23.4,-3.3 44.1,-8.5 65.6,-16.2 7.1,-2.6 13.6,-4.7 14.5,-4.7 1.5,-0.1 1.7,-0.8 1.1,-3.9 -0.7,-4.5 1.1,-5.1 5.7,-1.7 2.4,1.9 3.1,2 4.3,0.8 0.7,-0.8 4.2,-2.7 7.6,-4.4 5.3,-2.5 6.1,-3.2 5.6,-5 -2.3,-7.4 -0.3,-18.8 4.3,-23.8 3.1,-3.4 4.6,-35.7 1.8,-38.5 -1.1,-1.2 -1.9,-1.1 -4.5,0.3 -4.1,2.1 -12,1.7 -13.5,-0.7 -0.8,-1.3 -0.6,-3.5 0.7,-8.5 1.7,-6.6 1.7,-6.7 -0.4,-8.9 -1.4,-1.5 -1.9,-2.9 -1.4,-4.3 0.4,-1.3 -0.3,-3.6 -1.9,-6.3 -1.4,-2.4 -3,-7.4 -3.6,-11.3 -1.3,-7.9 -2.2,-9.5 -4.8,-7.8 -2.7,1.6 -17.6,2.7 -20,1.4 -2.8,-1.5 -4.8,-0.5 -6.2,3 -0.8,1.9 -2.2,3.1 -3.9,3.5 -1.4,0.2 -3.9,1.1 -5.4,1.9 -1.6,0.8 -3.3,1.5 -3.9,1.5 -0.6,0 -2.6,1.4 -4.5,3 -1.8,1.7 -6,4.4 -9.3,6 -3.2,1.6 -8,4.3 -10.6,6 -2.7,1.6 -6,3 -7.5,3 -3.5,0 -4.4,1.3 -6.4,8.9 -1.8,7.2 -6.9,20.5 -9.1,23.8 -0.8,1.3 -3.1,3 -5.1,3.8 -2,0.8 -4.6,2.6 -5.9,4 -2.5,2.7 -5.5,3.2 -7.2,1.2 -0.6,-0.7 -2.3,-5 -3.7,-9.5 -2.1,-6.6 -2.5,-9.9 -2.4,-17 0.2,-6.3 -0.5,-12 -2.4,-20.7 -3.2,-14.5 -3.3,-18.8 -0.7,-26.3 2.8,-7.8 3.6,-17.1 1.7,-19.7 -1.4,-1.9 -1.6,-1.9 -5.5,-0.1 -5.4,2.4 -7.1,1.9 -10.4,-3.4 -4.1,-6.6 -4.2,-7.1 -2.9,-9.2 1,-1.5 0.8,-2.2 -1.3,-4.1 -1.3,-1.2 -3.4,-4.9 -4.7,-8.1 -3.4,-8.5 -7.2,-12.3 -13.4,-13.1 -11.2,-1.4 -23.1,-5.2 -27,-8.7 -1.1,-0.9 -4.2,-2.6 -6.8,-3.8 -4.2,-1.9 -4.8,-2.5 -5.3,-6.1 -0.7,-4.4 -2.6,-5.9 -7.6,-5.9 -8.5,-0.1 -18.9,-11.5 -20.2,-22.3 -0.8,-5.9 -3.2,-9.2 -5.9,-8.1 -1.8,0.7 -3.3,4.8 -4.1,11.8 -0.5,4.2 -0.3,5.2 2,7.9 1.8,2.1 2.4,3.9 2.2,6.2 -0.3,4.2 1.1,5.8 7.2,8.4 5.6,2.4 6.5,3.4 4.6,5.1 -1.2,0.9 -2,0.8 -4,-0.6 -2.1,-1.3 -2.9,-1.4 -4.1,-0.4 -1.7,1.4 -1.8,2 -0.6,3.9 0.8,1.2 1.4,1.2 3.9,0.2 2.6,-1.1 3.4,-1 5.4,0.3 3.7,2.6 6.2,2 8.9,-2.1 4,-6.3 8.9,-5.2 7,1.5 -1.1,3.6 -0.4,4.7 3.2,5.6 2.2,0.5 2.7,1.2 2.7,3.9 0,1.7 0.7,4.1 1.5,5.1 0.8,1.1 1.5,2.9 1.5,3.9 0,1.1 0.9,3.4 2,5.2 1.9,3 1.9,3.4 0.5,4.9 -0.9,0.9 -2.3,1.6 -3.1,1.6 -0.8,0 -2.4,2 -3.6,4.5 -1.6,3.3 -2.8,4.5 -4.4,4.5 -1.4,0 -3.1,1.2 -4.4,3 -1.2,1.6 -3.2,3.3 -4.5,3.6 -1.3,0.3 -3.1,1.4 -4.1,2.5 -0.9,1 -3,1.9 -4.5,1.9 -2,0 -3.4,0.8 -4.5,2.5 -1.6,2.5 -2,2.6 -8.3,1.9 -5.9,-0.5 -6.8,-0.4 -8.5,1.5 -1.1,1.2 -2.7,2.1 -3.6,2.1 -1,0 -3.4,0.7 -5.3,1.5 -2,0.8 -5.6,1.5 -8,1.5 -3,0 -5.3,0.7 -7.2,2.2 -2.4,1.9 -3.2,2 -6.8,1.1 -3.7,-1 -4.6,-0.9 -8.2,1.2 -4.5,2.6 -7.2,2.2 -9.8,-1.5 -1.2,-1.7 -1.6,-1.8 -2,-0.6 -0.4,0.9 -0.2,2.8 0.3,4.3 0.4,1.5 1.1,4.5 1.5,6.5 0.6,3.9 4.2,6.8 8.3,6.8 1.1,0 3.6,0.7 5.6,1.5 2.9,1.2 4.5,1.3 8,0.4 2.3,-0.6 5.6,-0.9 7.2,-0.7 2.6,0.3 2.9,0.7 3.2,4.1 0.6,7.4 -7.7,27.5 -14.8,35.8 -2.3,2.7 -6.1,5.7 -9.2,7.1 -4.8,2.3 -6.4,4.1 -17.6,19.3 -12,16.5 -12.2,16.8 -10,18 1.3,0.7 7.2,4.2 13.2,7.9 38.4,23.4 87.7,39.7 135.1,44.5 13.1,1.4 59.9,0.5 72.6,-1.3 z m -8,-55.5 c -2.4,-2.4 -2.8,-7.9 -0.9,-11.4 0.6,-1.2 1.4,-3.8 1.8,-5.7 0.9,-5.8 3.7,-4.7 6.8,2.7 2.2,5.4 2.4,6.9 1.6,11 -0.8,4.4 -1.1,4.8 -4.1,5.1 -2.2,0.2 -3.8,-0.3 -5.2,-1.7 z m 135.8,9.5 10,-6.5 -1,-3.3 c -0.9,-3.4 -3.3,-5.8 -5.6,-5.8 -0.8,0 -2.1,-1.6 -2.9,-3.5 -0.8,-1.9 -1.8,-3.5 -2.3,-3.5 -0.9,0 -7.8,8 -10.6,12.3 -1.4,2.2 -1.6,3.8 -1.1,7.9 0.7,4.8 2.1,8.8 3.1,8.8 0.3,0 4.9,-2.9 10.4,-6.4 z m 54.4,-42.5 c 2.1,-1.6 3.3,-3.2 2.7,-3.6 -2,-1.3 -0.9,-4.4 2.6,-7.3 3.5,-2.9 6.6,-9.4 5.7,-11.8 -0.2,-0.7 -3.1,-1.5 -6.4,-1.9 -4.7,-0.6 -6.5,-0.4 -8.4,0.9 -1.4,0.9 -2.5,2.1 -2.5,2.6 0,0.5 -1.8,3 -4,5.5 -2.2,2.5 -4,4.7 -4,4.9 0,1 4.1,11.9 5.5,14.6 1.7,3.3 1.7,3.3 3.4,1.2 0.9,-1.1 3.3,-3.4 5.4,-5.1 z m 19.2,-19.3 c 0.6,-0.4 0.2,-0.8 -0.8,-0.8 -0.9,0 -1.7,0.7 -1.7,1.7 0,0.9 0.3,1.2 0.7,0.7 0.5,-0.5 1.3,-1.2 1.8,-1.6 z M 119.1,365.3 c 0.4,-7.6 0.2,-12.3 -0.7,-15.5 -0.7,-2.5 -1.6,-7.2 -2.1,-10.4 -0.5,-3.2 -1.7,-7.8 -2.7,-10.3 -1.4,-3.8 -1.5,-5.1 -0.6,-7.8 1.8,-4.9 1.5,-17.1 -0.4,-20.8 -1.5,-3 -1.5,-3.5 0.1,-8.1 2.8,-7.7 0.6,-24.7 -2.5,-19.7 -0.5,0.8 -1,5.8 -1,11 0,12.4 -2.5,34.3 -5.1,44.9 -2.5,9.9 -2.3,11.4 3.3,30.6 4.3,14.8 5.1,16.9 7.6,19.8 1.5,1.7 1.7,1.7 2.5,-0.5 0.5,-1.3 1.2,-7.2 1.6,-13.2 z m 465.6,-50.4 c -0.8,-0.8 -2.5,1 -2.5,2.6 0,1.3 0.2,1.3 1.4,-0.4 0.8,-1 1.3,-2.1 1.1,-2.2 z M 197.8,89.9 c 8.3,-5.6 12.3,-7.5 14.7,-6.8 2.5,0.6 4.7,-1 4.7,-3.5 0,-4 11.9,-7 17,-4.4 2.5,1.3 3.8,1.4 7.1,0.5 5.4,-1.5 4.5,-3.4 -1.7,-3.8 -5.8,-0.4 -6.9,-1.2 -6,-4.5 0.9,-3.9 7.8,-7.7 25.2,-14.1 8.7,-3.2 16.3,-6.3 16.9,-6.7 1.9,-1.8 -4.4,-0.8 -9.6,1.5 -3,1.3 -8.9,3.3 -13.2,4.5 -10.4,2.8 -22.3,8.7 -26.7,13.3 -2,2 -7.3,5.3 -12.1,7.6 -4.6,2.1 -10,5.2 -11.9,6.9 -2.1,1.9 -6.8,4.1 -12,5.8 -7.4,2.4 -12.6,4.3 -13.9,5.2 -0.2,0.1 0.1,0.8 0.7,1.6 0.7,0.8 3.3,1.2 8,1.1 6.3,-0.2 7.4,-0.6 12.8,-4.2 z M 418.5,77.6 c 5.8,-1.6 4.5,-3 -2,-2.3 -6.5,0.8 -6.8,0.8 -5.8,2.3 0.8,1.4 3,1.4 7.8,0 z m 14.1,-9.5 c 1.1,-0.4 1.4,-1.3 1,-3 -0.5,-1.8 0.2,-3.3 2.5,-5.9 1.7,-2 3.1,-4.3 3,-5.3 0,-1.3 -0.4,-1.1 -1.7,0.8 -0.9,1.4 -3.4,4.4 -5.6,6.7 -4.7,5.2 -4.3,8.7 0.8,6.7 z m 106.5,-4.8 c 1,-1.2 0.8,-1.3 -0.8,-0.9 -1.2,0.3 -2.1,0.9 -2.1,1.4 0,1.4 1.6,1.1 2.9,-0.5 z M 344.2,52.7 c 1.2,-0.8 0.9,-1 -1.2,-1 -1.6,0 -2.8,0.4 -2.8,1 0,1.3 2,1.3 4,0 z m 14.5,-4.9 c -0.7,-1.3 3.4,-4.1 5.1,-3.4 1.7,0.6 1.8,1.5 0.2,3.1 -1.4,1.4 -4.4,1.6 -5.3,0.3 z m 29.7,-2.3 c -1.9,-1 -2.3,-1.8 -2,-5.2 l 0.3,-4.1 10.5,-2.8 c 5.8,-1.5 12.8,-3.2 15.5,-3.7 2.8,-0.5 6.8,-1.5 9,-2.2 4,-1.3 34,-1.6 35.3,-0.4 0.3,0.4 0,1.2 -0.6,1.9 -0.9,0.8 -4.1,1.1 -10,0.9 -8.5,-0.3 -18.7,1.1 -32.4,4.2 -10.4,2.5 -15.2,4.9 -17.6,9 -2.2,3.8 -4,4.3 -8,2.4 z M 514.6,35.2 c -0.9,-1.4 -2.2,-2.5 -3,-2.5 -0.8,0 -2.8,-1.3 -4.5,-2.8 -2.8,-2.5 -3,-3.1 -2,-5 1.8,-3.4 4.5,-2.6 8,2.3 1.8,2.5 4,4.5 5,4.5 2,0 5.1,3 5.1,4.8 0,0.7 -1.5,1.2 -3.5,1.2 -2.6,0 -3.9,-0.6 -5.1,-2.5 z m -50.4,-21 c -1.3,-1.6 -0.3,-1.9 2.4,-0.9 0.9,0.3 1.3,1 1,1.5 -0.8,1.3 -2,1.1 -3.4,-0.6 z m 6.5,0.5 c -0.4,-0.6 0.6,-1 2.4,-1 1.6,0 3.3,0.4 3.6,1 0.4,0.6 -0.6,1 -2.4,1 -1.6,0 -3.3,-0.4 -3.6,-1 z m -70,-6.997 c -2.4,-3.9 11.6,-4.9 32.7,-2.4 3.2,0.4 5.6,1 5.3,1.4 -0.6,1 -9.5,1 -12.3,-0.1 -1.5,-0.6 -3.8,-0.6 -6,0 -6.8,1.8 -18.8,2.4 -19.7,1 z"/><path fill="#59c0eb" d="m 26.6,551.4 c 0,-0.1 0,-0.9 0,-1.7 0,-0.8 -2,-6.2 -4,-12 -9,-27.1 -16,-59.1 -18,-81 0,-3.5 -1,-6.8 -1,-7.2 -1,-1 -2,-38.5 -2,-48.7 1,-8.3 1,-10 4,-10.1 1,0 2,1.6 2,3.6 1,2 1,3.1 2,2.5 0,-0.8 1,0.4 3,3.1 9,14.4 27,35.6 42,49.8 12,11 29,25.7 36.4,30.5 4.4,2.9 5,4.2 2.9,6.5 -0.6,0.8 0.1,0.4 1.7,-1 1.6,-1.4 2.6,-1.9 2.2,-1.2 -0.4,0.6 -0.3,1.2 0.2,1.2 0.6,0 6,3.1 12.2,6.9 40.5,25.2 91.1,41.8 141,46.2 16.4,1.4 53.9,0.6 69.1,-1.5 23.2,-3.3 44,-8.4 65.6,-16.2 7.1,-2.6 13.6,-4.7 14.6,-4.7 0.9,-0.1 1.7,-0.5 1.7,-0.9 0,-0.5 1.2,0.4 2.8,2 1.5,1.5 1.8,1.8 0.8,0.5 -2.8,-3.3 -1.1,-4.6 4.2,-3.4 2.4,0.5 3.9,0.5 3.6,0 -0.3,-0.5 -1.6,-0.9 -2.9,-0.9 -1.3,0 -2.7,-0.5 -3.1,-1.2 -0.5,-0.8 -0.2,-0.9 1.1,-0.4 1,0.4 2.1,0.3 2.4,-0.2 0.3,-0.5 3.8,-2.6 7.7,-4.5 5.3,-2.7 7.4,-3.3 8.3,-2.4 0.8,0.8 1.1,0.7 1.1,-0.6 0,-1 1.5,-2.5 3.6,-3.4 3.4,-1.7 3.6,-1.7 5,0.2 1.7,2.2 1.8,1.6 0.4,-2 -0.6,-1.5 -0.6,-2.4 -0.1,-2 0.6,0.3 5.6,-2.4 11.2,-6.1 7.8,-5 10.4,-6.2 11,-5.2 0.6,1 0.9,0.8 0.9,-0.7 0.1,-1.4 3.1,-4.2 9.6,-8.9 5.2,-3.7 12.7,-9.5 16.5,-12.8 5.8,-5 7.2,-5.8 8.5,-4.8 1.3,1.1 1.3,1 0.5,-1.3 -0.6,-1.5 -0.7,-2.6 -0.3,-2.5 0.4,0.1 2.7,-1.7 5.2,-4 2.5,-2.3 4.9,-4.2 5.3,-4.2 0.5,0 0.5,-0.5 0.1,-1.2 -0.5,-0.8 0.2,-0.9 2.7,-0.4 2.9,0.5 3.1,0.5 1.6,-0.6 -1.6,-1.2 -1.5,-1.6 2.2,-5.2 2.1,-2.1 4.4,-3.5 5,-3.2 0.7,0.5 1.1,-0.4 1.1,-2.5 0,-1.8 0.3,-3 0.6,-2.6 0.8,0.7 3.3,-1.5 2.8,-2.5 -0.2,-0.3 1,-0.9 2.7,-1.3 2.3,-0.5 2.8,-1 1.8,-1.6 -1.1,-0.6 -0.9,-1.3 0.8,-3.6 21.3,-26.9 37.6,-54.9 48.9,-84.1 3.1,-8.1 6.3,-15.2 7.1,-15.9 0.9,-0.7 1.1,-1.3 0.4,-1.8 -0.8,-0.4 -0.7,-1.3 0.1,-2.8 0.7,-1.2 1.1,-2.5 1,-2.9 -0.1,-0.5 1,-0.8 2.6,-0.9 2.7,0 2.7,0 0.4,-1 -1.6,-0.6 -2.2,-1.5 -1.8,-2.6 13.6,-48.1 16.3,-98.2 7.6,-146.3 -4.5,-25.1 -13,-52.2 -23.6,-75.2 -3,-6.4 -5.4,-12 -5.4,-12.3 0,-0.4 1,-0.3 2.2,0 1.8,0.5 1.6,0.2 -0.7,-1.3 -3.3,-2.1 -6.2,-5.1 -6.6,-6.7 -0.1,-0.6 -0.7,-1.9 -1.4,-3 -0.7,-1.1 -3.5,-5.9 -6.3,-10.6 -4.4,-7.3 -15.5,-23.4 -22.2,-32.1 -1.1,-1.5 -1.7,-2.9 -1.2,-3.2 0.5,-0.3 6,1.2 12.3,3.3 29.8,10 56,22.2 83.1,38.6 l 17.8,10.7 0,239.9 0,239.9 -268.9,0 c -213.5,0 -269,-0.3 -269.4,-1.3 -0.4,-0.9 -0.6,-0.9 -0.6,0 -0.1,1 -7.2,1.3 -31.7,1.3 -30,0 -32,-0.1 -33,-1.8 0,-1.6 0,-1.6 0,0 0,1.5 -1,1.8 -5,1.8 -3,0 -5,-0.1 -6,-0.3 z M 499.5,549 c -0.7,-0.2 -1.9,-0.2 -2.5,0 -0.7,0.3 -0.2,0.5 1.2,0.5 1.4,0 1.9,-0.2 1.3,-0.5 z m -79.3,-0.7 c 0,-0.2 -0.8,-1 -1.7,-1.7 -1.6,-1.3 -1.7,-1.2 -0.4,0.3 1.3,1.7 2.1,2.2 2.1,1.4 z m 14.6,-1.8 c -0.9,-1.2 -1.6,-3.2 -1.6,-4.5 0,-1.2 -0.4,-2.4 -0.9,-2.7 -1.2,-0.8 0.4,6.1 1.9,7.9 1.9,2.3 2.3,1.8 0.6,-0.7 z m 102,-0.1 c 1.9,-2.2 1.9,-2.2 -0.1,-0.6 -1.1,0.9 -2.7,1.9 -3.5,2.2 -1.3,0.5 -1.3,0.6 0.1,0.6 0.9,0.1 2.4,-0.9 3.5,-2.2 z m -89.7,-1 c 0,-2.1 -0.1,-2.1 -0.9,-0.2 -0.7,1.8 -1.3,1.5 -6.4,-3.8 -3.2,-3.2 -5.3,-4.9 -4.7,-3.9 1.3,2.4 9.8,10.2 11.1,10.2 0.5,0 1,-1 0.9,-2.3 z m 134.3,-1.7 c 0.2,-1.6 1.1,-2.6 2.7,-3 1.4,-0.3 2.6,-1.1 2.7,-1.8 0.1,-0.7 0,-0.8 -0.3,-0.2 -0.2,0.5 -1.2,1 -2.2,1 -2.4,0 -4.1,2 -4.1,4.9 0,2.5 0,2.5 -3.5,-0.9 -1.9,-1.9 -3.5,-4.1 -3.6,-4.9 0,-1.2 -0.2,-1.3 -0.6,-0.3 -0.6,1.6 6.8,9.6 7.8,8.4 0.4,-0.4 0.9,-1.8 1.1,-3.2 z m -479.5,0.8 c -0.3,-0.8 -0.6,-0.5 -0.6,0.6 -0.1,1.1 0.2,1.7 0.5,1.3 0.3,-0.3 0.4,-1.2 0.1,-1.9 z M 513,542.7 c 3.7,-0.8 3.7,-0.8 0.5,-0.9 -2.1,-0.1 -4,0.7 -5.5,2.1 -1.3,1.3 -1.6,1.7 -0.6,0.9 1,-0.8 3.5,-1.7 5.6,-2.1 z m 29.2,1 c 1.3,-0.8 1.3,-1.1 0.1,-2.2 -0.9,-0.8 -1.2,-0.9 -0.7,-0.1 0.3,0.6 -0.2,1.6 -1.1,2.2 -1,0.6 -1.3,1 -0.8,1.1 0.5,0 1.7,-0.5 2.5,-1 z m -96.3,-9.2 c -0.2,-1.8 -0.4,-0.6 -0.4,2.7 0,3.3 0.2,4.8 0.4,3.3 0.2,-1.5 0.2,-4.2 0,-6 z m -37.5,4 c -0.7,-0.7 -1.2,-0.8 -1.2,-0.2 0,1.4 1.2,2.6 1.9,1.9 0.2,-0.3 -0.1,-1.1 -0.7,-1.7 z M 99.9,535.4 c -0.3,-0.6 -0.5,-0.1 -0.5,1.3 0,1.4 0.2,1.9 0.5,1.2 0.2,-0.6 0.2,-1.8 0,-2.5 z m 330.2,3 c -0.2,-0.1 -1.3,-0.9 -2.4,-1.7 -1.9,-1.4 -1.9,-1.4 -0.6,0.2 0.7,1 1.8,1.8 2.4,1.8 0.6,0 0.8,-0.1 0.6,-0.3 z m 106.3,-2.5 c -0.5,-3.2 -2,-5.2 -3.6,-5.2 -0.6,0 -0.3,0.5 0.6,1.1 1,0.5 1.8,2 1.8,3.3 0,1.9 0.7,3.6 1.5,3.6 0.1,0 0,-1.2 -0.3,-2.8 z m 51.5,-1.4 c -0.3,-0.8 -0.6,-0.5 -0.6,0.6 -0.1,1.1 0.2,1.7 0.5,1.3 0.3,-0.3 0.4,-1.2 0.1,-1.9 z m -554.3,-1 c 0,-0.8 0,-0.5 0,0.6 0,1.1 0,1.7 0,1.3 0,-0.3 1,-1.2 0,-1.9 z m 493.1,0.4 c -0.3,-0.3 -1.1,0 -1.8,0.7 -0.9,1 -0.8,1.1 0.6,0.5 1,-0.3 1.5,-0.9 1.2,-1.2 z m -110.5,0.5 c 0,-0.2 -1.2,-1.4 -2.7,-2.8 l -2.8,-2.4 2.4,2.7 c 2.3,2.6 3.1,3.3 3.1,2.5 z m 154.9,-1.3 c 0.2,-0.2 -1.3,-0.4 -3.4,-0.4 -3.4,0 -3.6,-0.1 -2.4,-1.8 1.3,-1.5 1.2,-1.6 -0.4,-0.3 -3.1,2.4 -2.1,4 2,3.4 2.1,-0.3 4,-0.7 4.2,-0.9 z M 98.9,530.5 c -0.3,-0.8 -0.6,-0.5 -0.6,0.6 -0.1,1.1 0.2,1.7 0.5,1.3 0.3,-0.3 0.4,-1.2 0.1,-1.9 z m -66.3,-1 c 0,-0.8 0,-0.5 0,0.6 0,1.1 0,1.7 0,1.3 0,-0.3 1,-1.2 0,-1.9 z M 432.9,528 c -0.3,-1 -0.5,-0.5 -0.5,1.2 0,1.6 0.2,2.4 0.5,1.8 0.2,-0.7 0.2,-2.1 0,-3 z m 147.3,1.1 c 1.5,-0.9 1.7,-1.2 0.5,-0.8 -1.1,0.4 -3.3,0.7 -4.8,0.7 -2,0 -2.4,0.3 -1.5,0.8 1.8,1.2 2.9,1.1 5.8,-0.7 z m 9.6,-4.2 c -0.3,-0.3 -1.7,0.1 -3.1,0.8 -1.4,0.7 -2.3,1.6 -2,1.9 0.3,0.2 1.1,-0.1 1.7,-0.7 1.8,-1.8 2.8,-1.4 2.9,1 0.2,2.3 0.2,2.3 0.6,0 0.3,-1.3 0.2,-2.6 -0.1,-3 z m -178.9,1.6 c -0.3,-0.8 -0.6,-0.5 -0.6,0.6 -0.1,1.1 0.2,1.7 0.5,1.3 0.3,-0.3 0.4,-1.2 0.1,-1.9 z m 36,-1.1 c -0.3,-0.6 -0.5,-0.1 -0.5,1.3 0,1.4 0.2,1.9 0.5,1.2 0.2,-0.6 0.2,-1.8 0,-2.5 z m -415.3,0.1 c 0,-0.8 0,-0.5 0,0.6 0,1.1 0,1.7 0,1.3 0,-0.3 1,-1.2 0,-1.9 z m 66.3,0 c -0.3,-0.8 -0.6,-0.5 -0.6,0.6 -0.1,1.1 0.2,1.7 0.5,1.3 0.3,-0.3 0.4,-1.2 0.1,-1.9 z m 324.3,1.9 c 0,-0.2 -1.2,-1.4 -2.7,-2.8 l -2.8,-2.4 2.4,2.7 c 2.3,2.6 3.1,3.3 3.1,2.5 z m 11.7,-5 c -0.3,-0.6 -0.5,-0.1 -0.5,1.3 0,1.4 0.2,1.9 0.5,1.2 0.2,-0.6 0.2,-1.8 0,-2.5 z M 96.3,521 c -1.2,-2 -1.4,-1.4 -0.5,1.2 0.4,0.9 0.9,1.4 1.1,1.1 0.3,-0.2 0,-1.3 -0.6,-2.3 z m 351.6,-0.5 c -0.3,-0.8 -0.6,-0.5 -0.6,0.6 -0.1,1.1 0.2,1.7 0.5,1.3 0.3,-0.3 0.4,-1.2 0.1,-1.9 z m 125,1.5 c -1.1,-0.3 -1.7,-1.4 -1.7,-3.1 0,-1.5 -0.7,-3.6 -1.5,-4.6 -0.8,-1.1 -1.5,-1.5 -1.5,-0.9 0,0.7 0.5,1.5 1,1.8 0.5,0.3 1,1.9 1,3.4 0,3.2 0.7,4.1 2.9,4 1.3,-0.1 1.3,-0.2 -0.2,-0.6 z m 4.9,-1.4 c 0.7,-1.1 -1.6,-9.3 -2.4,-8.5 -0.2,0.3 0.2,2.1 0.9,4.1 1.1,3.1 1.1,3.7 -0.1,4.5 -0.9,0.6 -1,1 -0.3,1 0.6,0 1.5,-0.5 1.9,-1.1 z m -143.9,-3.2 c -0.3,-0.6 -0.5,-0.1 -0.5,1.3 0,1.4 0.2,1.9 0.5,1.2 0.2,-0.6 0.2,-1.8 0,-2.5 z m 108.1,1.5 c 0.2,-0.7 -0.5,-1.2 -1.7,-1.2 -1.2,0 -2.1,0.6 -2.1,1.6 0,1.8 3.1,1.5 3.8,-0.4 z m -126.7,-1.5 c -1,-0.9 -1.1,-0.8 -0.5,0.6 0.3,1 0.9,1.5 1.2,1.2 0.3,-0.3 0,-1.1 -0.7,-1.8 z m -385.7,-2 c 0,-0.6 0,-0.1 0,1.3 0,1.4 0,1.9 0,1.2 0,-0.6 0,-1.8 0,-2.5 z m 415.3,-0.8 c -2.2,-1.8 -4.1,-4.5 -4.8,-7 -0.7,-2.1 -1.4,-3.7 -1.7,-3.5 -1.1,1.2 2.2,7.4 5.6,10.7 2,2 3.9,3.5 4.1,3.3 0.3,-0.3 -1.2,-1.8 -3.2,-3.5 z m 144.7,1.3 c 0.2,-0.4 -0.4,-0.8 -1.4,-0.8 -1,0 -1.6,0.4 -1.4,0.8 0.3,0.4 0.9,0.8 1.4,0.8 0.5,0 1.1,-0.4 1.4,-0.8 z m -158.4,-5.1 c -2.8,-5.6 -3.5,-5.2 -0.8,0.4 1.2,2.4 2.3,4.3 2.6,4.1 0.2,-0.2 -0.6,-2.2 -1.8,-4.5 z m 122.8,0.1 c 7,-6.9 8.2,-11.2 1.6,-5.4 -2.9,2.6 -7.4,8.4 -7.4,9.6 0,1.3 1.3,0.4 5.8,-4.2 z m 1.6,-4.1 c 2.1,-2.3 2.6,-2.6 2.6,-1.1 0,0.5 -1,1.5 -2.3,2.1 -2.2,1.2 -2.2,1.2 -0.3,-1 z m -527,4.7 c 0,-0.8 0,-0.5 0,0.6 0,1.1 0,1.7 0,1.3 0,-0.3 1,-1.2 0,-1.9 z M 93.9,510 c -0.3,-1 -0.5,-0.5 -0.5,1.2 0,1.6 0.2,2.4 0.5,1.8 0.2,-0.7 0.2,-2.1 0,-3 z m 497,0 c -0.3,-1 -0.5,-0.5 -0.5,1.2 0,1.6 0.2,2.4 0.5,1.8 0.2,-0.7 0.2,-2.1 0,-3 z m -16.5,-0.5 c -0.7,-0.7 -1.2,-2.8 -1.2,-4.8 -0.1,-3.9 -5.2,-11.1 -6.5,-9 -0.4,0.6 0,1.9 0.9,2.9 0.9,1 1.7,3.5 1.8,5.7 l 0.1,3.9 0.4,-3.8 c 0.5,-4.8 2.3,-4.8 2.3,0.1 0,3.3 1.3,6.2 2.9,6.2 0.3,0 0,-0.5 -0.7,-1.2 z m -546.8,-3 c 0,-0.8 0,-0.5 0,0.6 0,1.1 0,1.7 0,1.3 0,-0.3 1,-1.2 0,-1.9 z m 65.3,-4.1 c -0.3,-0.6 -0.5,-0.1 -0.5,1.3 0,1.4 0.2,1.9 0.5,1.2 0.2,-0.6 0.2,-1.8 0,-2.5 z m 373.9,2.1 c 0.5,-0.7 0.3,-0.8 -0.6,-0.3 -1,0.6 -1.2,0 -0.7,-3.1 0.4,-2.7 0.3,-3.4 -0.3,-2.4 -1.1,1.7 -1.3,5.4 -0.3,6.3 0.9,0.9 1.1,0.9 1.9,-0.5 z m -440.2,-2 c 0,-0.8 0,-0.5 0,0.6 0,1.1 0,1.7 0,1.3 0,-0.3 1,-1.2 0,-1.9 z m 443.7,-0.6 c 1.3,-1.5 1.2,-1.6 -0.3,-0.3 -1,0.7 -1.8,1.5 -1.8,1.7 0,0.8 0.8,0.3 2.1,-1.4 z m 110.5,-2 c -1.7,-1.6 -1.8,-1.6 -0.5,0.5 0.7,1.2 1.5,2 1.8,1.7 0.3,-0.2 -0.3,-1.2 -1.3,-2.2 z M 91.9,498.5 c -0.3,-0.8 -0.6,-0.5 -0.6,0.6 0,1.1 0.2,1.7 0.5,1.3 0.3,-0.3 0.4,-1.2 0.1,-1.9 z m 382.4,0.5 c 1.3,-1.6 1.2,-1.7 -0.3,-0.4 -1,0.7 -1.8,1.5 -1.8,1.7 0,0.8 0.8,0.3 2.1,-1.3 z M 25.6,497.5 c 0,-0.8 0,-0.5 0,0.6 0,1.1 0,1.7 0,1.3 0,-0.3 1,-1.2 0,-1.9 z m 553.1,-0.7 c -0.3,-0.5 0.4,-1.3 1.6,-1.6 1.1,-0.4 1.8,-0.9 1.6,-1.2 -0.9,-0.8 -4.8,1.8 -4.2,2.8 0.4,0.5 0.8,0.9 1.1,0.9 0.3,0 0.3,-0.4 -0.1,-0.9 z m -112.5,-2.1 c -0.6,-1.1 -1.3,-2 -1.6,-2 -0.2,0 0,0.9 0.6,2 0.6,1.1 1.3,2 1.6,2 0.2,0 0,-0.9 -0.6,-2 z m 120.1,-0.3 c -1,-0.9 -1.1,-0.8 -0.5,0.6 0.3,1 0.9,1.5 1.2,1.2 0.3,-0.3 0,-1.1 -0.7,-1.8 z M 485.5,495 c -1.3,-0.2 -3.3,-0.2 -4.5,0 -1.3,0.2 -0.3,0.4 2.2,0.4 2.5,0 3.5,-0.2 2.3,-0.4 z M 24.6,491.5 c 0,-0.7 0,-0.2 0,1.2 0,1.4 0,1.9 0,1.3 0,-0.7 0,-1.9 0,-2.5 z m 466.1,2.2 c 0.3,-0.6 -0.1,-0.7 -0.9,-0.4 -1.8,0.7 -2.1,1.4 -0.7,1.4 0.6,0 1.3,-0.4 1.6,-1 z m -398.2,-3 c 0.3,-1.1 0.1,-1.8 -0.4,-1.4 -0.5,0.3 -0.9,1.2 -0.9,2 0,2 0.7,1.7 1.3,-0.6 z m 369,-1.5 c -0.3,-0.9 -0.8,-1.4 -1,-1.1 -0.3,0.3 -0.2,0.9 0.2,1.5 0.9,1.6 1.5,1.3 0.8,-0.4 z M 23.6,485 c 0,-1 0,-0.4 0,1.2 0,1.6 0,2.4 0,1.8 0,-0.7 0,-2.1 0,-3 z m 549,2.9 c 0.2,-0.4 -0.4,-0.8 -1.4,-0.8 -1,0 -1.6,0.4 -1.4,0.8 0.3,0.4 0.9,0.8 1.4,0.8 0.5,0 1.1,-0.4 1.4,-0.8 z m 5.1,-8.2 4,-4.5 -4.3,4 c -2.3,2.1 -4.2,4.3 -4.2,4.9 0,0.5 0.1,0.7 0.2,0.5 0.2,-0.2 2.1,-2.4 4.3,-4.9 z M 22.6,478.5 c 0,-0.7 0,-0.2 0,1.2 0,1.4 0,1.9 0,1.3 0,-0.7 0,-1.9 0,-2.5 z m 476.3,-2 c -0.3,-0.8 -0.6,-0.5 -0.6,0.6 -0.1,1.1 0.2,1.7 0.5,1.3 0.3,-0.3 0.4,-1.2 0.1,-1.9 z m -477.3,-3 c 0,-0.8 0,-0.5 0,0.6 0,1.1 0,1.7 0,1.3 0,-0.3 1,-1.2 0,-1.9 z m 546.7,0.5 c 1.3,-1.6 1.2,-1.7 -0.4,-0.4 -0.9,0.7 -1.7,1.5 -1.7,1.7 0,0.8 0.8,0.3 2.1,-1.3 z m 14.6,-6 c -0.3,-1 -0.5,-0.4 -0.5,1.2 0,1.6 0.2,2.4 0.5,1.8 0.2,-0.7 0.2,-2.1 0,-3 z m -562.3,0.5 c 0,-0.8 0,-0.5 0,0.6 0,1.1 0,1.7 0,1.3 0,-0.3 1,-1.2 0,-1.9 z m 553.6,-5.2 c 0,-2.6 -0.6,-1.8 -1.4,1.9 -0.5,2.2 -0.4,2.6 0.4,1.5 0.5,-0.8 1,-2.4 1,-3.4 z m -554.6,1.2 c 0,-0.8 0,-0.5 0,0.6 0,1.1 0,1.7 0,1.3 0,-0.3 1,-1.2 0,-1.9 z m 561.2,-1.6 c -1.7,-1.6 -1.8,-1.6 -0.5,0.5 0.7,1.2 1.5,2 1.8,1.7 0.3,-0.2 -0.3,-1.2 -1.3,-2.2 z m -81.6,0.4 c 0,-0.2 -0.8,-1 -1.7,-1.7 -1.6,-1.3 -1.7,-1.2 -0.4,0.4 1.3,1.6 2.1,2.1 2.1,1.3 z M 18.6,459.5 c 0,-0.8 0,-0.5 0,0.6 0,1.1 0,1.7 0,1.3 0,-0.3 1,-1.2 0,-1.9 z m 558.3,0.6 c -0.3,-0.3 -1.2,-0.4 -1.9,-0.1 -0.8,0.3 -0.5,0.6 0.6,0.6 1.1,0.1 1.7,-0.2 1.3,-0.5 z M 17.6,454.5 c 0,-0.8 0,-0.5 0,0.6 0,1.1 0,1.7 0,1.3 0,-0.3 1,-1.2 0,-1.9 z m -1,-5 c 0,-0.8 0,-0.5 0,0.6 0,1.1 0,1.7 0,1.3 0,-0.3 1,-1.2 0,-1.9 z m -1,-5 c 0,-0.8 0,-0.5 0,0.6 0,1.1 0,1.7 0,1.3 0,-0.3 1,-1.2 0,-1.9 z m -1,-7 c 0,-0.7 0,-0.2 0,1.2 0,1.4 0,1.9 0,1.3 0,-0.7 0,-1.9 0,-2.5 z m 568.9,-7 c 2.5,-4 2.6,-4.1 0.3,-1.6 -1.3,1.5 -2.6,3.3 -2.9,4 -0.4,1 -0.8,1 -1.6,-0.2 -0.9,-1.3 -1.1,-1.3 -1.1,0.3 0,3 2.6,1.8 5.3,-2.5 z M 13.6,429 c 0,-1 0,-0.2 0,1.7 0,1.9 0,2.7 0,1.8 0,-1 0,-2.6 0,-3.5 z m 566.3,-1.5 c -0.3,-0.8 -0.6,-0.5 -0.6,0.6 -0.1,1.1 0.2,1.7 0.5,1.3 0.3,-0.3 0.4,-1.2 0.1,-1.9 z M 543.5,427 c -0.7,-0.2 -2.1,-0.2 -3,0 -1,0.3 -0.5,0.5 1.2,0.5 1.6,0 2.4,-0.2 1.8,-0.5 z m -6.6,-0.9 c -0.3,-0.3 -1.2,-0.4 -1.9,-0.1 -0.8,0.3 -0.5,0.6 0.6,0.6 1.1,0.1 1.7,-0.2 1.3,-0.5 z m 12,0 c -0.3,-0.3 -1.2,-0.4 -1.9,-0.1 -0.8,0.3 -0.5,0.6 0.6,0.6 1.1,0.1 1.7,-0.2 1.3,-0.5 z M 532.4,425 c -0.6,-0.2 -1.8,-0.2 -2.5,0 -0.6,0.3 -0.1,0.5 1.3,0.5 1.4,0 1.9,-0.2 1.2,-0.5 z m 56.8,-1.8 c 1.3,-1.4 2.1,-2.5 1.8,-2.5 -0.2,0 -1.5,1.1 -2.8,2.5 -1.3,1.4 -2.1,2.5 -1.8,2.5 0.2,0 1.5,-1.1 2.8,-2.5 z m -7.1,-1.5 c 1.1,-2.4 1.1,-2.4 -0.3,-0.6 -0.9,1.1 -1.6,2.4 -1.6,3 0,1.2 0.5,0.7 1.9,-2.4 z m -13.9,-4.6 c 0,-0.2 -0.9,0 -2,0.6 -1.1,0.6 -2,1.3 -2,1.6 0,0.2 0.9,0 2,-0.6 1.1,-0.6 2,-1.3 2,-1.6 z m 18.1,0.9 c 1.3,-1.6 1.2,-1.7 -0.4,-0.4 -0.9,0.7 -1.7,1.5 -1.7,1.7 0,0.8 0.8,0.3 2.1,-1.3 z m 4.9,-1.3 c 0,-0.5 -0.8,-1 -1.8,-1 -1.4,0 -1.5,0.2 -0.2,1 1.9,1.2 2,1.2 2,0 z m -15.4,-5.2 c 0.4,-0.7 -0.9,0.1 -2.9,1.6 -2,1.6 -3.7,3 -3.7,3.3 0,0.7 5.8,-3.6 6.6,-4.9 z m 7.9,-6.8 c 3.3,-3.3 5.7,-6 5.4,-6 -0.2,0 -3.1,2.7 -6.4,6 -3.3,3.3 -5.7,6 -5.4,6 0.2,0 3.1,-2.7 6.4,-6 z M 11.6,403 c -1,-0.9 -2,-2.3 -3,-3.2 0,-1.2 0,-1.2 0,-0.2 -1,1.3 4,6.3 5,5.4 0,-0.3 -1,-1.2 -2,-2 z m 579.7,-7 c 1.3,-1.6 1.2,-1.7 -0.4,-0.4 -1.6,1.3 -2.1,2.1 -1.3,2.1 0.2,0 1,-0.8 1.7,-1.7 z m 3.4,-14.3 c -1,-1.1 -1.5,-2.8 -1.2,-4 0.3,-1.1 0.1,-1.8 -0.4,-1.4 -1.4,0.8 -1.1,3.6 0.8,5.6 0.9,1 1.8,1.8 2.1,1.8 0.3,0 -0.3,-0.9 -1.3,-2 z m 0.2,-10.2 c -0.3,-0.7 -0.5,-0.2 -0.5,1.2 0,1.4 0.2,1.9 0.5,1.3 0.2,-0.7 0.2,-1.9 0,-2.5 z m -1,-9.5 c -0.2,-1.6 -0.4,-0.5 -0.4,2.2 0,2.8 0.2,4 0.4,2.8 0.2,-1.3 0.2,-3.5 0,-5 z m -0.7,-4.1 c 0,-0.5 -0.7,-1.7 -1.5,-2.8 -1.4,-1.8 -1.4,-1.7 -0.4,0.9 1.2,2.7 1.9,3.4 1.9,1.9 z m 36.5,0.1 c -1.7,-0.2 -3.6,-1.2 -4.3,-2.1 -0.6,-0.8 -1.2,-1.1 -1.2,-0.6 0,1.9 2.4,3.4 5.5,3.3 l 3,-0.2 -3,-0.4 z m -1.7,-8.8 c -0.3,-0.3 -0.9,0.2 -1.2,1.2 -0.6,1.4 -0.5,1.5 0.5,0.6 0.7,-0.7 1,-1.5 0.7,-1.8 z m -39.5,0 c -0.3,-0.9 -0.8,-1.4 -1,-1.1 -0.3,0.3 -0.2,0.9 0.2,1.5 0.9,1.6 1.5,1.3 0.8,-0.4 z m 5.1,-12.4 c -0.5,-0.6 -3.4,2 -3.4,3 0,0.5 0.8,0.1 1.8,-0.8 1,-1 1.7,-2 1.6,-2.2 z m 33.3,-1.3 c -0.3,-0.8 -0.6,-0.5 -0.6,0.6 -0.1,1.1 0.2,1.7 0.5,1.3 0.3,-0.3 0.4,-1.2 0.1,-1.9 z m -29.2,-0.6 c -0.3,-0.3 -1.1,0 -1.8,0.7 -0.9,1 -0.8,1.1 0.6,0.5 1,-0.3 1.5,-0.9 1.2,-1.2 z m 40.3,-1.7 c -0.6,-1.4 -1.3,-2.3 -1.5,-2.1 -0.5,0.5 1.5,4.6 2.2,4.6 0.3,0 -0.1,-1.1 -0.7,-2.5 z m -33.3,0.6 c 0.3,-0.5 0.2,-1.2 -0.3,-1.5 -0.5,-0.3 -0.9,0.1 -0.9,0.9 0,1.7 0.3,1.9 1.2,0.6 z m 20.6,-2.4 c -1,-0.9 -1.1,-0.8 -0.5,0.6 0.3,1 0.9,1.5 1.2,1.2 0.3,-0.3 0,-1.1 -0.7,-1.8 z m -4.4,-3.4 c 0,-1.6 0.4,-4.2 0.7,-5.8 0.5,-2.1 0.2,-1.8 -0.8,1 -1.7,4.3 -2,7.5 -0.9,7.5 0.5,0 0.9,-1.2 1,-2.7 z m -29.7,1.3 c 0,-0.3 -0.5,-0.8 -1,-1.1 -0.5,-0.3 -1,-0.1 -1,0.4 0,0.6 0.5,1.1 1,1.1 0.5,0 1,-0.2 1,-0.4 z m 3.1,-1.3 c 1.3,-1.6 1.2,-1.7 -0.4,-0.4 -0.9,0.7 -1.7,1.5 -1.7,1.7 0,0.8 0.8,0.3 2.1,-1.3 z m 41.6,-1.5 c -0.3,-0.7 -0.5,-0.2 -0.5,1.2 0,1.4 0.2,1.9 0.5,1.3 0.2,-0.7 0.2,-1.9 0,-2.5 z m -47.2,-3.7 c -0.3,-0.6 -1.1,-1.1 -1.6,-1.1 -0.5,0 -0.4,0.6 0.3,1.4 1.4,1.6 2.4,1.3 1.3,-0.3 z m 48.2,-1.3 c -0.3,-0.8 -0.6,-0.5 -0.6,0.6 -0.1,1.1 0.2,1.7 0.5,1.3 0.3,-0.3 0.4,-1.2 0.1,-1.9 z m -15.7,-3.3 c 0,-0.2 -1,-0.9 -2.3,-1.5 -2.1,-1.1 -2.1,-1 -0.3,0.4 2.1,1.7 2.6,1.9 2.6,1.1 z m -17.9,-1.4 c -1,-0.7 -1.1,-1.3 -0.2,-3 0.7,-1.1 0.9,-2.1 0.7,-2.1 -0.3,0 -1,0.9 -1.6,2 -1.2,2.2 -0.6,4 1.3,4 0.8,0 0.8,-0.3 -0.2,-0.9 z m -8.6,-6.9 c -0.3,-0.3 -1.1,0 -1.8,0.7 -0.9,1 -0.8,1.1 0.6,0.5 1,-0.3 1.5,-0.9 1.2,-1.2 z m 11.2,-2.6 c -0.4,-0.9 -1.4,-1.5 -2.4,-1.5 -1.7,0.1 -1.7,0.2 0,0.6 1.3,0.3 1.7,1.1 1.3,2.5 -0.3,1.5 -0.2,1.8 0.6,1 0.6,-0.6 0.8,-1.8 0.5,-2.6 z M 635.8,94.8 c -1.6,-1.8 -10,-3.5 -9,-1.9 0.3,0.5 2,0.8 3.8,0.8 1.9,0 3.9,0.7 4.6,1.5 0.7,0.8 1.5,1.5 1.8,1.5 0.3,0 -0.3,-0.9 -1.2,-1.9 z m -33.3,-1.4 c 0.6,-2.1 0.5,-2.1 -0.8,-0.3 -1.3,1.7 -1.7,1.5 -6.9,-3.7 -3.1,-3.1 -5.2,-4.8 -4.6,-3.7 1.1,2 9.9,10 11,10 0.4,0 1,-1 1.3,-2.3 z m 14.7,-0.6 c 0,-0.3 -0.7,-1.5 -1.5,-2.5 -2.3,-3 -1.8,-3.8 1.7,-3.2 l 3.3,0.6 -2.8,-1.1 c -3.6,-1.4 -5.4,0 -3.8,2.9 0.6,1.1 0.8,2.8 0.5,3.6 -0.5,1.2 -0.2,1.5 1,1 0.9,-0.3 1.6,-0.9 1.6,-1.3 z m -4.3,0.3 c -0.3,-0.3 -1.2,-0.4 -1.9,-0.1 -0.8,0.3 -0.5,0.6 0.6,0.6 1.1,0.1 1.7,-0.2 1.3,-0.5 z M 585.3,77.7 c -1.3,-1.1 -3.3,-2 -4.5,-1.9 -1.5,0.1 -1.2,0.3 1.1,1 1.8,0.5 3.5,1.4 3.8,1.9 0.3,0.6 0.9,1 1.3,1 0.4,0 -0.4,-0.9 -1.7,-2 z m -11.4,-2 c 0.6,-2.1 1.3,-2.5 2.9,-1.2 0.5,0.4 0,-0.1 -1.1,-1.2 -2,-1.8 -2,-1.8 -2.3,0.7 -0.2,1.7 -1.1,2.7 -2.5,3 -2.1,0.4 -2.1,0.4 0.1,0.6 1.6,0.1 2.6,-0.6 2.9,-1.9 z m 27.9,-6.1 c 0.3,-0.6 0.1,-1.6 -0.5,-2.2 -0.9,-0.9 -1.1,-0.8 -0.6,0.6 0.6,1.3 0.2,1.7 -1.7,1.7 -2.6,0 -6.8,-2.5 -6.8,-4.1 0,-0.6 1,-0.8 2.2,-0.4 1.8,0.5 2,0.4 0.8,-0.4 -1.9,-1.3 -5,-1.4 -5,-0.2 0,0.5 1.4,2.1 3.1,3.5 3.2,2.7 7.3,3.4 8.5,1.5 z"/><path fill="#b0d562" d="m 36.6,545.9 c -3,-13.4 -11,-47.8 -12,-58.7 -1,-4.4 -3,-16.3 -5,-26.5 -5,-22.5 -6,-34.2 -6,-46.7 0,-8.5 0,-9.7 -2,-11.2 -2,-1.9 -3,-4.4 -2,-6 0,-0.8 1,0.3 3,3.1 10,14.4 28,35.6 42,49.8 12,11 29,25.7 36.4,30.5 4.7,3.1 5,3.9 2.2,7.5 -1.1,1.4 -2,4.1 -2,6.2 0,4.8 1.9,16.7 3.8,23.8 0.8,3 2.2,9.1 3.2,13.5 1,4.4 2.3,10 2.9,12.5 2.1,8.8 5.1,8 -30.5,8 l -32,0 -2,-5.8 z m 382.4,1.4 c -2,-3.2 -2.8,-5.5 -2.6,-8.5 0.1,-3.3 -0.4,-4.7 -2.5,-6.9 -1.5,-1.6 -2.7,-3.4 -2.7,-4.1 0,-1.8 -2.9,-7.3 -5.3,-9.9 -2.7,-2.9 -1.3,-4.3 3.6,-3.5 3.3,0.5 4.1,1.2 6.2,5.3 1.3,2.5 3.1,5.2 3.9,5.9 0.9,0.7 3,3.8 4.7,6.8 1.7,3 4.2,5.8 5.5,6.3 1.7,0.7 2.4,1.7 2.4,3.5 0,2.6 3.9,7.5 6,7.5 0.5,0 1,0.5 1,1 0,0.6 -3.6,1 -8.7,1 l -8.8,-0.1 -2.7,-4.3 z m 62,3.7 c 0.7,-0.3 1.6,-0.2 1.9,0.1 0.4,0.3 -0.2,0.6 -1.3,0.5 -1.1,0 -1.4,-0.3 -0.6,-0.6 z m 13.2,-0.3 c 0,-0.5 1.1,-1 2.5,-1 2.8,0 7.6,-2.2 11.4,-5.1 1.3,-1.1 3.6,-1.9 5,-1.9 2.7,0 7,-2.4 8.4,-4.7 1.2,-2 10.7,-6.5 12.3,-5.9 0.8,0.3 1.4,1.6 1.4,2.9 0,2.4 2.7,5.7 4.8,5.7 3.9,0 -0.4,4.4 -7.1,7.2 -0.9,0.4 -2,1.4 -2.3,2.3 -0.5,1.3 -3.4,1.5 -18.5,1.5 -11.3,0 -17.9,-0.4 -17.9,-1 z m -53.4,-8 c -6.5,-6 -7.8,-9.5 -7.1,-18.2 0.6,-6.8 0.5,-7.7 -2.4,-13.3 -1.7,-3.3 -3.1,-6.6 -3.1,-7.2 0,-1.6 5.8,-4.6 7.5,-3.9 0.7,0.2 2,2.9 2.9,5.8 1.1,3.8 2.7,6.5 5.4,9 l 3.9,3.6 -1.4,7.8 c -0.8,4.4 -1.2,10.6 -0.9,14.1 0.3,3.5 0.3,6.3 0,6.3 -0.2,0 -2.4,-1.8 -4.8,-4 z m 135.5,0.6 c -2.4,-2.4 -3.2,-4.1 -2.8,-5.6 0.7,-2.9 -1.8,-5 -6,-5 -2.9,0 -3.3,-0.2 -2.4,-1.4 1.5,-1.8 7.1,-2.6 9.5,-1.4 1.7,0.9 5.9,-0.2 11.8,-3.3 1,-0.5 2,-0.9 2.3,-0.9 0.9,0 0.5,3.1 -1.1,8.6 -1.1,4 -2,5.4 -3.3,5.4 -2.3,0 -3.8,1.8 -4.3,4.8 -0.3,2.3 -0.4,2.2 -3.7,-1.2 z m -5.1,-24.1 c 0,-1.4 -0.7,-3.6 -1.5,-4.9 -1.2,-1.8 -1.3,-3 -0.5,-5 0.5,-1.5 1,-4.1 1,-5.7 0,-1.6 0.5,-2.9 1,-2.9 0.5,0 1,1.7 1,3.7 0,2 0.6,4.4 1.3,5.2 0.7,0.9 2,3.5 2.7,5.9 1.2,3.7 1.2,4.5 -0.1,5.3 -2.8,1.7 -4.9,1 -4.9,-1.6 z m 13.7,-8.6 c -1.5,-2.8 -2.7,-6 -2.7,-7.1 0,-1.1 -0.9,-3.2 -2,-4.6 l -2.1,-2.6 2.6,-1.4 c 3.4,-1.7 5.9,-0.8 5.2,1.9 -0.3,1.1 0.5,4.2 1.9,7 2.6,5 2.9,10.9 0.8,11.6 -0.6,0.2 -2.3,-1.9 -3.7,-4.8 z m -29.3,-3.8 c 2.1,-2.3 2.6,-2.6 2.6,-1.1 0,0.5 -1,1.5 -2.3,2.1 -2.2,1.2 -2.2,1.2 -0.3,-1 z m -90.4,-4 c 0,-1.1 0.4,-3.1 1,-4.6 0.8,-2.2 0.6,-3 -1.4,-4.8 -2.8,-2.7 -4.6,-6 -4.6,-8.4 0.1,-1.1 3.7,-4.4 9.6,-8.7 5.2,-3.7 12.7,-9.5 16.6,-12.9 l 7,-6.1 2.9,3.5 c 3.4,4.1 3.8,10.3 1.3,19 -3.5,11.8 -6.4,14.9 -14.2,14.9 -3.1,0 -5.3,1 -9.8,4.3 -8.3,6.1 -8.4,6.1 -8.4,3.8 z m 104.7,-15.7 c -0.4,-0.4 -0.7,-1.8 -0.7,-3.1 0,-1.3 -0.8,-3.5 -1.7,-5 -1.7,-2.5 -1.6,-2.6 0.9,-4.8 2.8,-2.4 5.8,-8.4 5.8,-11.6 0,-2.9 3.5,-2.3 6,0.9 3.4,4.2 2.3,10.3 -2.8,15.5 -2.2,2.3 -4.2,5.1 -4.4,6.1 -0.3,2.1 -2,3.1 -3.1,2 z m -60,-42.6 c -1.6,-1.2 -1.5,-1.6 2.3,-5.3 2.9,-2.9 4.3,-3.6 5.1,-2.8 0.8,0.8 0.7,2.1 -0.7,5 -2.1,4.2 -4,5.1 -6.7,3.1 z m 69.8,-15 c 0.4,-2.4 1.2,-5.2 1.7,-6.3 1.3,-2.5 5.9,-6.4 7.6,-6.5 3.1,-0.1 2.1,3.2 -2.7,9 -2.8,3.4 -5.1,6.5 -5.1,7.1 0,0.5 -0.5,0.9 -1.1,0.9 -0.7,0 -0.8,-1.4 -0.4,-4.2 z m -45,-3.9 c -1.7,-0.5 -4.5,-0.6 -6.3,-0.3 -4,0.8 -4.1,-0.5 -0.4,-4.8 16.5,-19.1 36.6,-53.9 48.1,-83.3 4.6,-11.7 6.4,-15.1 7.9,-15.3 2.6,-0.4 5.2,2.3 5.2,5.4 0,2.9 2.4,3.2 5.3,0.7 1.8,-1.7 2,-1.7 3.6,0.3 0.9,1.2 2.7,2.6 3.9,3.3 2.8,1.5 1.9,3.1 -1.7,3.1 -4.5,0 -8.8,2.8 -11,7.1 -2.7,5.1 -2.7,5.5 0.8,12 2.2,4.1 3,7.4 3.5,13.6 0.5,5.3 0.4,8.3 -0.3,8.8 -1.7,1 -1.3,4 0.9,6 2.7,2.5 2.5,4.3 -1,9.9 -6.5,10.2 -18.9,21.3 -31.1,27.9 -10.9,6 -20,7.8 -27.4,5.6 z m 90.9,-69.4 c -0.4,-0.8 0.1,-2.6 1,-4 1.9,-2.8 2.1,-9.7 0.5,-16.1 -1.1,-4.1 -3.8,-7.1 -5.2,-5.7 -1.4,1.3 -1.9,-2.9 -0.7,-5.6 1.6,-3.9 0.5,-6.8 -3,-8.6 -3.6,-1.9 -6.9,-1.9 -9.4,0 -2.3,1.7 -3.5,1.8 -5.5,0.6 -1.2,-0.8 -1,-1.5 0.7,-4.6 4.2,-7 2,-7.9 -7.8,-3.1 -7.4,3.7 -9.5,4.2 -10.4,2.7 -0.3,-0.4 0.8,-5.7 2.4,-11.8 18.2,-68 11.3,-146.6 -18.7,-211.6 -3,-6.6 -5.3,-12.1 -5,-12.3 0.2,-0.2 1.8,0.1 3.6,0.7 3.6,1.3 6.1,0.6 6.1,-1.6 0,-1.7 1.6,-2 2.5,-0.5 0.3,0.5 2.4,1.4 4.6,2 3.2,0.9 4.6,2.1 7.4,6.4 3.1,4.9 10.8,12.6 12.6,12.6 0.4,0 0.9,-0.9 1.2,-2.1 0.3,-1.2 1,-1.8 1.5,-1.5 0.6,0.3 2.9,0.8 5.2,1.1 2.4,0.3 4.6,0.7 4.9,1 0.4,0.2 1.3,0 2,-0.4 1.1,-0.7 1,-1.4 -0.4,-3.5 -1,-1.5 -1.5,-2.9 -1.2,-3.2 1.1,-1.1 9,1.8 11.2,4.2 1.2,1.3 3.4,2.4 4.8,2.4 1.4,0 4.4,1.2 6.6,2.7 l 4.1,2.7 0,109.8 c 0,107.9 0,109.8 -1.9,109.8 -1.1,0 -2.2,0.8 -2.5,1.8 -1.7,6.3 -1.7,8.4 0.4,12.7 1.2,2.5 2.6,4.5 3.1,4.5 0.5,0 0.9,3.6 0.9,8 l 0,7.9 -4.6,2.1 c -5.5,2.4 -10.2,2.6 -11,0.5 z M 594.1,67.8 c -1.3,-1.1 -2.1,-2.2 -1.8,-2.5 0.9,-0.9 8.2,1.9 8.7,3.2 0.6,1.9 -4.3,1.4 -6.9,-0.7 z"/></svg>